<svg width="240" height="142" viewBox="0 0 240 142" fill="none" xmlns="http://www.w3.org/2000/svg">
<rect width="240" height="141.951" rx="15" fill="white"/>
<path d="M0 15C0 6.71573 6.71573 0 15 0H225C233.284 0 240 6.71573 240 15V34H0V15Z" fill="#DF7861"/>
<path d="M26.6846 22C26.3428 22 26.1719 21.8169 26.1719 21.4507V12.0464C26.1719 11.6802 26.3428 11.4971 26.6846 11.4971H29.2407C31.4868 11.4971 33.0054 11.9512 33.7964 12.8594C34.5923 13.7676 34.9902 15.0591 34.9902 16.7339C34.9902 18.4087 34.5923 19.7051 33.7964 20.623C33.0054 21.541 31.4868 22 29.2407 22H26.6846ZM28.3105 20.1836H29.1016C30.6152 20.1836 31.5942 19.9028 32.0386 19.3413C32.4829 18.7749 32.7051 17.9058 32.7051 16.7339C32.7051 15.562 32.4829 14.6978 32.0386 14.1411C31.5942 13.5796 30.6152 13.2988 29.1016 13.2988H28.3105V20.1836ZM37.0557 22C36.7627 22 36.6162 21.8535 36.6162 21.5605V14.749C36.6162 14.4561 36.7627 14.3096 37.0557 14.3096H38.2129C38.5059 14.3096 38.6523 14.4561 38.6523 14.749V15.3496H38.6816C38.8086 15.0371 39.021 14.7612 39.3188 14.522C39.6167 14.2827 39.9683 14.1631 40.3735 14.1631C40.6519 14.1631 40.8813 14.1973 41.062 14.2656C41.2329 14.3291 41.2988 14.4463 41.2598 14.6172L41.0547 15.4888C41.0107 15.6841 40.8789 15.7427 40.6592 15.6646C40.5322 15.6206 40.4102 15.5986 40.293 15.5986C39.8242 15.5986 39.436 15.8794 39.1284 16.4409C38.8208 17.0024 38.667 17.8203 38.667 18.8945V21.5605C38.667 21.8535 38.5205 22 38.2275 22H37.0557ZM42.8125 22C42.5195 22 42.373 21.8535 42.373 21.5605V14.749C42.373 14.4561 42.5195 14.3096 42.8125 14.3096H43.9844C44.2773 14.3096 44.4238 14.4561 44.4238 14.749V21.5605C44.4238 21.8535 44.2773 22 43.9844 22H42.8125ZM42.8125 13.1816C42.5195 13.1816 42.373 13.0352 42.373 12.7422V11.8047C42.373 11.5117 42.5195 11.3652 42.8125 11.3652H43.9844C44.2773 11.3652 44.4238 11.5117 44.4238 11.8047V12.7422C44.4238 13.0352 44.2773 13.1816 43.9844 13.1816H42.8125ZM45.9106 14.8809C45.7886 14.5 45.8691 14.3096 46.1523 14.3096H47.4634C47.6929 14.3096 47.8394 14.4341 47.9028 14.6831L49.0381 18.9751C49.1016 19.2144 49.1528 19.4512 49.1919 19.6855C49.2358 19.9199 49.2627 20.1104 49.2725 20.2568H49.3164C49.3262 20.1104 49.3506 19.9199 49.3896 19.6855C49.4336 19.4512 49.4873 19.2144 49.5508 18.9751L50.686 14.6831C50.7495 14.4341 50.896 14.3096 51.1255 14.3096H52.4365C52.7197 14.3096 52.8003 14.5 52.6782 14.8809L50.5542 21.5093C50.4517 21.8364 50.2734 22 50.0195 22H48.5693C48.3154 22 48.1372 21.8364 48.0347 21.5093L45.9106 14.8809ZM53.3887 18.1548C53.3887 16.9194 53.6963 15.9453 54.3115 15.2324C54.9316 14.5195 55.8057 14.1631 56.9336 14.1631C58.2422 14.1631 59.2139 14.5 59.8486 15.1738C60.4834 15.8477 60.8008 16.9316 60.8008 18.4258C60.8008 18.7188 60.6641 18.8652 60.3906 18.8652H55.5566C55.6348 19.6758 55.835 20.186 56.1572 20.396C56.4795 20.606 56.853 20.7109 57.2778 20.7109C57.6831 20.7109 57.9932 20.6572 58.208 20.5498C58.4229 20.4424 58.6035 20.2959 58.75 20.1104C58.916 19.8955 59.1211 19.8613 59.3652 20.0078L60.0977 20.4546C60.3857 20.6304 60.4272 20.8403 60.2222 21.0845C59.9243 21.4409 59.5752 21.707 59.1748 21.8828C58.7744 22.0586 58.1421 22.1465 57.2778 22.1465C55.8765 22.1465 54.8779 21.79 54.2822 21.0771C53.6865 20.3643 53.3887 19.3901 53.3887 18.1548ZM55.564 17.4004H58.75C58.75 16.873 58.6182 16.4434 58.3545 16.1113C58.0908 15.7744 57.6709 15.606 57.0947 15.606C56.6357 15.606 56.272 15.7671 56.0034 16.0894C55.7349 16.4067 55.5884 16.8438 55.564 17.4004ZM62.8369 22C62.5439 22 62.3975 21.8535 62.3975 21.5605V14.749C62.3975 14.4561 62.5439 14.3096 62.8369 14.3096H63.9941C64.2871 14.3096 64.4336 14.4561 64.4336 14.749V15.3496H64.4629C64.5898 15.0371 64.8022 14.7612 65.1001 14.522C65.3979 14.2827 65.7495 14.1631 66.1548 14.1631C66.4331 14.1631 66.6626 14.1973 66.8433 14.2656C67.0142 14.3291 67.0801 14.4463 67.041 14.6172L66.8359 15.4888C66.792 15.6841 66.6602 15.7427 66.4404 15.6646C66.3135 15.6206 66.1914 15.5986 66.0742 15.5986C65.6055 15.5986 65.2173 15.8794 64.9097 16.4409C64.6021 17.0024 64.4482 17.8203 64.4482 18.8945V21.5605C64.4482 21.8535 64.3018 22 64.0088 22H62.8369ZM73.9697 22C73.6279 22 73.457 21.8169 73.457 21.4507V12.0464C73.457 11.6802 73.6279 11.4971 73.9697 11.4971H75.1562C75.4492 11.4971 75.5957 11.6802 75.5957 12.0464V20.1836H79.8657C80.2319 20.1836 80.415 20.3423 80.415 20.6597V21.5239C80.415 21.8413 80.2319 22 79.8657 22H73.9697ZM82.2314 22C81.9385 22 81.792 21.8535 81.792 21.5605V14.749C81.792 14.4561 81.9385 14.3096 82.2314 14.3096H83.4033C83.6963 14.3096 83.8428 14.4561 83.8428 14.749V21.5605C83.8428 21.8535 83.6963 22 83.4033 22H82.2314ZM82.2314 13.1816C81.9385 13.1816 81.792 13.0352 81.792 12.7422V11.8047C81.792 11.5117 81.9385 11.3652 82.2314 11.3652H83.4033C83.6963 11.3652 83.8428 11.5117 83.8428 11.8047V12.7422C83.8428 13.0352 83.6963 13.1816 83.4033 13.1816H82.2314ZM85.4248 18.1548C85.4248 16.9097 85.7373 15.9331 86.3623 15.2251C86.9873 14.5171 87.9468 14.1631 89.2407 14.1631C89.9976 14.1631 90.5859 14.2632 91.0059 14.4634C91.4258 14.6636 91.7627 14.9565 92.0166 15.3423C92.168 15.5718 92.1436 15.7524 91.9434 15.8843L91.167 16.397C90.9473 16.5435 90.7544 16.4873 90.5884 16.2285C90.5054 16.1016 90.3467 15.9648 90.1123 15.8184C89.8779 15.6719 89.5874 15.5986 89.2407 15.5986C88.689 15.5986 88.2764 15.7939 88.0029 16.1846C87.7295 16.5703 87.5928 17.2271 87.5928 18.1548C87.5928 19.0825 87.7295 19.7417 88.0029 20.1323C88.2764 20.5181 88.689 20.7109 89.2407 20.7109C89.6362 20.7109 89.9561 20.6279 90.2002 20.4619C90.4443 20.2959 90.6738 20.0811 90.8887 19.8174C91.0742 19.5928 91.2695 19.561 91.4746 19.7222L92.1558 20.2568C92.3608 20.418 92.373 20.6328 92.1924 20.9014C92.002 21.1846 91.6772 21.4629 91.2183 21.7363C90.7642 22.0098 90.105 22.1465 89.2407 22.1465C87.9468 22.1465 86.9873 21.7925 86.3623 21.0845C85.7373 20.3765 85.4248 19.3999 85.4248 18.1548ZM93.3789 18.1548C93.3789 16.9194 93.6865 15.9453 94.3018 15.2324C94.9219 14.5195 95.7959 14.1631 96.9238 14.1631C98.2324 14.1631 99.2041 14.5 99.8389 15.1738C100.474 15.8477 100.791 16.9316 100.791 18.4258C100.791 18.7188 100.654 18.8652 100.381 18.8652H95.5469C95.625 19.6758 95.8252 20.186 96.1475 20.396C96.4697 20.606 96.8433 20.7109 97.2681 20.7109C97.6733 20.7109 97.9834 20.6572 98.1982 20.5498C98.4131 20.4424 98.5938 20.2959 98.7402 20.1104C98.9062 19.8955 99.1113 19.8613 99.3555 20.0078L100.088 20.4546C100.376 20.6304 100.417 20.8403 100.212 21.0845C99.9146 21.4409 99.5654 21.707 99.165 21.8828C98.7646 22.0586 98.1323 22.1465 97.2681 22.1465C95.8667 22.1465 94.8682 21.79 94.2725 21.0771C93.6768 20.3643 93.3789 19.3901 93.3789 18.1548ZM95.5542 17.4004H98.7402C98.7402 16.873 98.6084 16.4434 98.3447 16.1113C98.0811 15.7744 97.6611 15.606 97.085 15.606C96.626 15.606 96.2622 15.7671 95.9937 16.0894C95.7251 16.4067 95.5786 16.8438 95.5542 17.4004ZM102.827 22C102.534 22 102.388 21.8535 102.388 21.5605V14.749C102.388 14.4561 102.534 14.3096 102.827 14.3096H103.984C104.277 14.3096 104.424 14.4561 104.424 14.749V15.1738H104.453C104.678 14.7881 104.963 14.5244 105.31 14.3828C105.657 14.2363 106.074 14.1631 106.562 14.1631C107.324 14.1631 107.954 14.4023 108.452 14.8809C108.95 15.3594 109.199 16.2334 109.199 17.5029V21.5605C109.199 21.8535 109.053 22 108.76 22H107.588C107.295 22 107.148 21.8535 107.148 21.5605V18.0303C107.148 16.9658 107.075 16.2944 106.929 16.0161C106.782 15.7378 106.467 15.5986 105.984 15.5986C105.471 15.5986 105.085 15.7988 104.827 16.1992C104.568 16.5947 104.438 17.4199 104.438 18.6748V21.5605C104.438 21.8535 104.292 22 103.999 22H102.827ZM111.023 21.4873C110.784 21.3164 110.718 21.1333 110.825 20.938L111.199 20.2568C111.331 20.0127 111.536 19.9834 111.814 20.1689C112.092 20.3545 112.419 20.4912 112.795 20.5791C113.176 20.667 113.523 20.7109 113.835 20.7109C114.055 20.7109 114.26 20.689 114.451 20.645C114.641 20.6011 114.802 20.5156 114.934 20.3887C115.066 20.2617 115.132 20.0762 115.132 19.832C115.132 19.6855 115.093 19.561 115.015 19.4585C114.937 19.356 114.836 19.2778 114.714 19.2241C114.592 19.1704 114.463 19.1265 114.326 19.0923C114.146 19.0483 113.884 18.9751 113.542 18.8726C113.206 18.77 112.881 18.6504 112.568 18.5137C112.31 18.4014 112.056 18.2451 111.807 18.0449C111.562 17.8398 111.382 17.6128 111.265 17.3638C111.152 17.1147 111.096 16.8071 111.096 16.4409C111.096 15.9478 111.238 15.5156 111.521 15.1445C111.809 14.7734 112.18 14.5171 112.634 14.3755C113.088 14.2339 113.655 14.1631 114.333 14.1631C114.792 14.1631 115.239 14.229 115.674 14.3608C116.108 14.4927 116.418 14.6172 116.604 14.7344C116.897 14.9199 116.97 15.1177 116.824 15.3276L116.377 15.9795C116.24 16.1748 116.021 16.1895 115.718 16.0234C115.488 15.8965 115.261 15.7939 115.037 15.7158C114.817 15.6377 114.57 15.5986 114.297 15.5986C114.111 15.5986 113.933 15.6182 113.762 15.6572C113.591 15.6963 113.445 15.7695 113.323 15.877C113.206 15.9844 113.147 16.126 113.147 16.3018C113.147 16.4873 113.201 16.6338 113.308 16.7412C113.42 16.8438 113.547 16.9194 113.689 16.9683C113.835 17.0171 113.975 17.0635 114.106 17.1074C114.38 17.1953 114.656 17.2808 114.934 17.3638C115.212 17.4419 115.496 17.5371 115.784 17.6494C116.033 17.7471 116.274 17.8862 116.509 18.0669C116.743 18.2476 116.914 18.4771 117.021 18.7554C117.129 19.0337 117.183 19.3511 117.183 19.7075C117.183 20.1812 117.041 20.6206 116.758 21.0259C116.475 21.4312 116.101 21.7192 115.637 21.8901C115.173 22.061 114.634 22.1465 114.019 22.1465C113.33 22.1465 112.744 22.0977 112.261 22C111.777 21.9023 111.365 21.7314 111.023 21.4873ZM118.135 18.1548C118.135 16.9194 118.442 15.9453 119.058 15.2324C119.678 14.5195 120.552 14.1631 121.68 14.1631C122.988 14.1631 123.96 14.5 124.595 15.1738C125.229 15.8477 125.547 16.9316 125.547 18.4258C125.547 18.7188 125.41 18.8652 125.137 18.8652H120.303C120.381 19.6758 120.581 20.186 120.903 20.396C121.226 20.606 121.599 20.7109 122.024 20.7109C122.429 20.7109 122.739 20.6572 122.954 20.5498C123.169 20.4424 123.35 20.2959 123.496 20.1104C123.662 19.8955 123.867 19.8613 124.111 20.0078L124.844 20.4546C125.132 20.6304 125.173 20.8403 124.968 21.0845C124.67 21.4409 124.321 21.707 123.921 21.8828C123.521 22.0586 122.888 22.1465 122.024 22.1465C120.623 22.1465 119.624 21.79 119.028 21.0771C118.433 20.3643 118.135 19.3901 118.135 18.1548ZM120.31 17.4004H123.496C123.496 16.873 123.364 16.4434 123.101 16.1113C122.837 15.7744 122.417 15.606 121.841 15.606C121.382 15.606 121.018 15.7671 120.75 16.0894C120.481 16.4067 120.334 16.8438 120.31 17.4004Z" fill="white"/>
<rect x="96" y="55" width="124.39" height="10.9756" fill="#DF7861"/>
<rect x="96" y="71.8293" width="124.39" height="10.9756" fill="#DF7861"/>
<rect x="96" y="88.6585" width="124.39" height="10.9756" fill="#DF7861"/>
<rect x="96" y="105.488" width="124.39" height="10.9756" fill="#DF7861"/>
<rect x="25" y="58" width="55.6098" height="57.0732" rx="5" fill="#DF7861"/>
</svg>
