<svg width="240" height="142" viewBox="0 0 240 142" fill="none" xmlns="http://www.w3.org/2000/svg">
<rect width="240" height="141.951" rx="15" fill="#F8AC4B"/>
<path d="M155.854 141.951L112.109 0H84.1462L126.69 141.951H155.854Z" fill="#FA9D29"/>
<path d="M128.781 141.951L85.0357 0H57.0732L99.6173 141.951H128.781Z" fill="#FBA334"/>
<path d="M100.975 141.951L57.2302 0H29.2678L71.8119 141.951H100.975Z" fill="#FEAF4B"/>
<path d="M24.7045 97.6805V96.6405H28.8645V84.6005H28.7645L24.9245 88.0205L24.2445 87.2605L28.2245 83.7205H30.0445V96.6405H33.9445V97.6805H24.7045ZM45.5167 97.6805H36.4367V96.4605L41.3767 91.7805C42.0567 91.1405 42.6034 90.4938 43.0167 89.8405C43.4301 89.1738 43.6367 88.4738 43.6367 87.7405V87.3605C43.6367 86.4938 43.3901 85.8072 42.8967 85.3005C42.4167 84.7805 41.6967 84.5205 40.7367 84.5205C39.8034 84.5205 39.0767 84.7538 38.5567 85.2205C38.0501 85.6738 37.6767 86.2872 37.4367 87.0605L36.3767 86.6805C36.5101 86.2538 36.6901 85.8472 36.9167 85.4605C37.1434 85.0738 37.4301 84.7338 37.7767 84.4405C38.1367 84.1472 38.5634 83.9138 39.0567 83.7405C39.5501 83.5672 40.1167 83.4805 40.7567 83.4805C41.4234 83.4805 42.0101 83.5805 42.5167 83.7805C43.0367 83.9672 43.4701 84.2338 43.8167 84.5805C44.1767 84.9272 44.4434 85.3472 44.6167 85.8405C44.8034 86.3205 44.8967 86.8605 44.8967 87.4605C44.8967 88.4472 44.6434 89.3472 44.1367 90.1605C43.6301 90.9605 42.9501 91.7538 42.0967 92.5405L37.6967 96.6405H45.5167V97.6805ZM52.3689 89.8405C53.3556 89.8405 54.1222 89.6072 54.6689 89.1405C55.2156 88.6605 55.4889 88.0405 55.4889 87.2805V87.0205C55.4889 86.2205 55.2222 85.6072 54.6889 85.1805C54.1689 84.7405 53.4889 84.5205 52.6489 84.5205C51.8222 84.5205 51.1622 84.6938 50.6689 85.0405C50.1756 85.3738 49.7822 85.8205 49.4889 86.3805L48.5889 85.7405C48.7489 85.4472 48.9489 85.1672 49.1889 84.9005C49.4422 84.6205 49.7289 84.3738 50.0489 84.1605C50.3822 83.9472 50.7622 83.7805 51.1889 83.6605C51.6289 83.5405 52.1222 83.4805 52.6689 83.4805C53.2556 83.4805 53.7956 83.5605 54.2889 83.7205C54.7956 83.8805 55.2289 84.1138 55.5889 84.4205C55.9489 84.7138 56.2289 85.0805 56.4289 85.5205C56.6422 85.9472 56.7489 86.4338 56.7489 86.9805C56.7489 87.4472 56.6756 87.8672 56.5289 88.2405C56.3956 88.6138 56.2022 88.9338 55.9489 89.2005C55.7089 89.4672 55.4156 89.6938 55.0689 89.8805C54.7356 90.0538 54.3756 90.1872 53.9889 90.2805V90.3605C54.4022 90.4272 54.7956 90.5538 55.1689 90.7405C55.5422 90.9138 55.8622 91.1472 56.1289 91.4405C56.4089 91.7338 56.6289 92.0872 56.7889 92.5005C56.9489 92.9138 57.0289 93.3805 57.0289 93.9005C57.0289 94.5005 56.9222 95.0538 56.7089 95.5605C56.4956 96.0538 56.1889 96.4738 55.7889 96.8205C55.3889 97.1672 54.9089 97.4405 54.3489 97.6405C53.7889 97.8272 53.1622 97.9205 52.4689 97.9205C51.9089 97.9205 51.4022 97.8605 50.9489 97.7405C50.4956 97.6338 50.0889 97.4805 49.7289 97.2805C49.3689 97.0672 49.0489 96.8205 48.7689 96.5405C48.4889 96.2605 48.2422 95.9605 48.0289 95.6405L48.9289 94.9605C49.3156 95.5605 49.7822 96.0338 50.3289 96.3805C50.8756 96.7138 51.5889 96.8805 52.4689 96.8805C53.4956 96.8805 54.3022 96.6272 54.8889 96.1205C55.4756 95.6005 55.7689 94.9005 55.7689 94.0205V93.7005C55.7689 92.8205 55.4822 92.1338 54.9089 91.6405C54.3489 91.1338 53.5289 90.8805 52.4489 90.8805H50.6889V89.8405H52.3689ZM66.7011 97.6805V94.7605H59.6611V93.7005L66.1611 83.7205H67.8411V93.7805H70.0211V94.7605H67.8411V97.6805H66.7011ZM60.7411 93.7805H66.7011V84.7405H66.6411L60.7411 93.7805ZM92.7255 84.7605H86.4055L85.9655 90.6205L86.0855 90.6405C86.4455 90.1472 86.8588 89.7805 87.3255 89.5405C87.8055 89.2872 88.4188 89.1605 89.1655 89.1605C89.7788 89.1605 90.3388 89.2605 90.8455 89.4605C91.3655 89.6472 91.8055 89.9272 92.1655 90.3005C92.5255 90.6605 92.8055 91.1072 93.0055 91.6405C93.2055 92.1605 93.3055 92.7538 93.3055 93.4205C93.3055 94.1005 93.1988 94.7205 92.9855 95.2805C92.7855 95.8272 92.4855 96.3005 92.0855 96.7005C91.6988 97.0872 91.2255 97.3872 90.6655 97.6005C90.1055 97.8138 89.4788 97.9205 88.7855 97.9205C88.2388 97.9205 87.7388 97.8605 87.2855 97.7405C86.8455 97.6338 86.4455 97.4805 86.0855 97.2805C85.7388 97.0672 85.4255 96.8205 85.1455 96.5405C84.8655 96.2605 84.6188 95.9605 84.4055 95.6405L85.3255 94.9605C85.7121 95.5605 86.1655 96.0338 86.6855 96.3805C87.2188 96.7138 87.9255 96.8805 88.8055 96.8805C89.8455 96.8805 90.6455 96.5872 91.2055 96.0005C91.7788 95.4138 92.0655 94.6405 92.0655 93.6805V93.3605C92.0655 92.3872 91.7855 91.6138 91.2255 91.0405C90.6788 90.4672 89.8855 90.1805 88.8455 90.1805C88.4721 90.1805 88.1455 90.2138 87.8655 90.2805C87.5855 90.3338 87.3321 90.4205 87.1055 90.5405C86.8921 90.6472 86.6921 90.7805 86.5055 90.9405C86.3188 91.0872 86.1388 91.2605 85.9655 91.4605L84.9255 91.3005L85.4255 83.7205H92.7255V84.7605ZM100.878 97.9205C100.131 97.9205 99.471 97.8005 98.8977 97.5605C98.3377 97.3072 97.8643 96.9605 97.4777 96.5205C97.091 96.0672 96.7977 95.5272 96.5977 94.9005C96.411 94.2605 96.3177 93.5605 96.3177 92.8005C96.3177 91.7205 96.4643 90.7205 96.7577 89.8005C97.0643 88.8672 97.4577 88.0205 97.9377 87.2605C98.431 86.5005 98.991 85.8272 99.6177 85.2405C100.244 84.6405 100.884 84.1338 101.538 83.7205H103.098C102.311 84.2538 101.611 84.7872 100.998 85.3205C100.398 85.8538 99.871 86.4205 99.4177 87.0205C98.9643 87.6072 98.5843 88.2405 98.2777 88.9205C97.9843 89.6005 97.751 90.3472 97.5777 91.1605L97.6577 91.1805C98.0043 90.5538 98.4643 90.0605 99.0377 89.7005C99.611 89.3272 100.324 89.1405 101.178 89.1405C101.804 89.1405 102.371 89.2405 102.878 89.4405C103.398 89.6405 103.844 89.9272 104.218 90.3005C104.591 90.6605 104.878 91.1072 105.078 91.6405C105.278 92.1605 105.378 92.7472 105.378 93.4005C105.378 94.0805 105.271 94.7005 105.058 95.2605C104.844 95.8072 104.544 96.2805 104.158 96.6805C103.771 97.0672 103.298 97.3738 102.738 97.6005C102.178 97.8138 101.558 97.9205 100.878 97.9205ZM100.858 96.9005C101.898 96.9005 102.704 96.6138 103.278 96.0405C103.864 95.4538 104.158 94.6738 104.158 93.7005V93.3405C104.158 92.3672 103.864 91.5938 103.278 91.0205C102.704 90.4338 101.898 90.1405 100.858 90.1405C99.8043 90.1405 98.9843 90.4338 98.3977 91.0205C97.8243 91.5938 97.5377 92.3672 97.5377 93.3405V93.7005C97.5377 94.6738 97.8243 95.4538 98.3977 96.0405C98.9843 96.6138 99.8043 96.9005 100.858 96.9005ZM110.41 97.6805L116.11 84.7605H109.33V87.6405H108.25V83.7205H117.33V84.7805L111.71 97.6805H110.41ZM124.842 97.9205C124.082 97.9205 123.402 97.8205 122.802 97.6205C122.215 97.4205 121.715 97.1472 121.302 96.8005C120.902 96.4538 120.595 96.0405 120.382 95.5605C120.182 95.0672 120.082 94.5338 120.082 93.9605C120.082 92.9872 120.342 92.2072 120.862 91.6205C121.395 91.0205 122.109 90.6205 123.002 90.4205V90.2805C122.242 90.0672 121.635 89.6738 121.182 89.1005C120.742 88.5272 120.522 87.8205 120.522 86.9805C120.522 85.9138 120.902 85.0672 121.662 84.4405C122.422 83.8005 123.482 83.4805 124.842 83.4805C126.202 83.4805 127.262 83.8005 128.022 84.4405C128.782 85.0672 129.162 85.9138 129.162 86.9805C129.162 87.8205 128.935 88.5272 128.482 89.1005C128.042 89.6738 127.442 90.0672 126.682 90.2805V90.4205C127.575 90.6205 128.282 91.0205 128.802 91.6205C129.335 92.2072 129.602 92.9872 129.602 93.9605C129.602 94.5338 129.495 95.0672 129.282 95.5605C129.082 96.0405 128.775 96.4538 128.362 96.8005C127.962 97.1472 127.462 97.4205 126.862 97.6205C126.275 97.8205 125.602 97.9205 124.842 97.9205ZM124.842 96.9005C125.922 96.9005 126.775 96.6472 127.402 96.1405C128.042 95.6338 128.362 94.9538 128.362 94.1005V93.6405C128.362 92.7738 128.049 92.0938 127.422 91.6005C126.795 91.0938 125.935 90.8405 124.842 90.8405C123.749 90.8405 122.889 91.0938 122.262 91.6005C121.635 92.0938 121.322 92.7738 121.322 93.6405V94.1005C121.322 94.9538 121.635 95.6338 122.262 96.1405C122.902 96.6472 123.762 96.9005 124.842 96.9005ZM124.842 89.8605C125.815 89.8605 126.575 89.6405 127.122 89.2005C127.669 88.7472 127.942 88.1338 127.942 87.3605V87.0005C127.942 86.2272 127.662 85.6205 127.102 85.1805C126.555 84.7272 125.802 84.5005 124.842 84.5005C123.882 84.5005 123.122 84.7272 122.562 85.1805C122.015 85.6205 121.742 86.2272 121.742 87.0005V87.3605C121.742 88.1338 122.015 88.7472 122.562 89.2005C123.109 89.6405 123.869 89.8605 124.842 89.8605ZM26.1445 122.64L25.3245 122.04L28.0645 118.28L23.8045 116.9L24.1045 115.94L28.3845 117.3V112.72H29.4445V117.3L33.7045 115.94L34.0045 116.9L29.7445 118.28L32.5045 122.04L31.6645 122.64L28.9045 118.84L26.1445 122.64ZM38.1367 122.64L37.3167 122.04L40.0567 118.28L35.7967 116.9L36.0967 115.94L40.3767 117.3V112.72H41.4367V117.3L45.6967 115.94L45.9967 116.9L41.7367 118.28L44.4967 122.04L43.6567 122.64L40.8967 118.84L38.1367 122.64ZM50.1289 122.64L49.3089 122.04L52.0489 118.28L47.7889 116.9L48.0889 115.94L52.3689 117.3V112.72H53.4289V117.3L57.6889 115.94L57.9889 116.9L53.7289 118.28L56.4889 122.04L55.6489 122.64L52.8889 118.84L50.1289 122.64ZM62.1211 122.64L61.3011 122.04L64.0411 118.28L59.7811 116.9L60.0811 115.94L64.3611 117.3V112.72H65.4211V117.3L69.6811 115.94L69.9811 116.9L65.7211 118.28L68.4811 122.04L67.6411 122.64L64.8811 118.84L62.1211 122.64ZM86.1055 122.64L85.2855 122.04L88.0255 118.28L83.7655 116.9L84.0655 115.94L88.3455 117.3V112.72H89.4055V117.3L93.6655 115.94L93.9655 116.9L89.7055 118.28L92.4655 122.04L91.6255 122.64L88.8655 118.84L86.1055 122.64ZM98.0977 122.64L97.2777 122.04L100.018 118.28L95.7577 116.9L96.0577 115.94L100.338 117.3V112.72H101.398V117.3L105.658 115.94L105.958 116.9L101.698 118.28L104.458 122.04L103.618 122.64L100.858 118.84L98.0977 122.64ZM110.09 122.64L109.27 122.04L112.01 118.28L107.75 116.9L108.05 115.94L112.33 117.3V112.72H113.39V117.3L117.65 115.94L117.95 116.9L113.69 118.28L116.45 122.04L115.61 122.64L112.85 118.84L110.09 122.64ZM122.082 122.64L121.262 122.04L124.002 118.28L119.742 116.9L120.042 115.94L124.322 117.3V112.72H125.382V117.3L129.642 115.94L129.942 116.9L125.682 118.28L128.442 122.04L127.602 122.64L124.842 118.84L122.082 122.64Z" fill="white"/>
<path d="M162.236 37.4878C161.793 37.4878 161.572 37.2803 161.572 36.8653V26.2071C161.572 25.792 161.793 25.5845 162.236 25.5845H165.058C167.183 25.5845 168.617 25.8474 169.358 26.3731C170.105 26.8933 170.479 27.6957 170.479 28.7803C170.479 29.5384 170.199 30.125 169.64 30.5401C169.087 30.9551 168.55 31.1958 168.03 31.2622V31.2871C168.534 31.3203 169.126 31.5749 169.806 32.0508C170.487 32.5267 170.827 33.1991 170.827 34.0679C170.827 35.0861 170.412 35.9107 169.582 36.5415C168.752 37.1724 167.383 37.4878 165.473 37.4878H162.236ZM163.996 35.4624H165.208C166.381 35.4624 167.178 35.3601 167.598 35.1553C168.024 34.9506 168.238 34.5355 168.238 33.9102C168.238 33.3236 167.991 32.9196 167.499 32.6983C167.012 32.4714 166.248 32.3579 165.208 32.3579H163.996V35.4624ZM163.996 30.399H165.083C165.797 30.399 166.464 30.2744 167.084 30.0254C167.709 29.7764 168.022 29.389 168.022 28.8633C168.022 28.4538 167.847 28.1439 167.499 27.9336C167.156 27.7178 166.351 27.6099 165.083 27.6099H163.996V30.399ZM173.608 37.4878C173.221 37.4878 173.027 37.2803 173.027 36.8653V26.2071C173.027 25.792 173.221 25.5845 173.608 25.5845H177.451C179.161 25.5845 180.409 25.8501 181.195 26.3814C181.981 26.9071 182.374 27.7648 182.374 28.9546C182.374 29.84 182.056 30.5456 181.419 31.0713C180.783 31.597 179.975 31.9457 178.995 32.1172V32.1338C179.527 32.333 179.928 32.6097 180.199 32.9639C180.47 33.3181 180.691 33.628 180.863 33.8936L182.689 36.774C182.994 37.2499 182.888 37.4878 182.374 37.4878H180.929C180.625 37.4878 180.376 37.3246 180.182 36.9981L178.506 34.2007C178.323 33.9019 177.988 33.5754 177.501 33.2212C177.02 32.8615 176.541 32.6817 176.065 32.6817H175.451V36.8653C175.451 37.2803 175.257 37.4878 174.87 37.4878H173.608ZM175.451 30.6231H176.937C178.044 30.6231 178.829 30.4986 179.294 30.2495C179.765 29.995 180 29.5938 180 29.0459C180 28.4483 179.773 28.0609 179.319 27.8838C178.871 27.7012 178.21 27.6099 177.335 27.6099H175.451V30.6231ZM184.507 37.4878C184.109 37.4878 183.979 37.3052 184.117 36.94L188.184 26.2569C188.356 25.8086 188.616 25.5845 188.965 25.5845H190.127C190.475 25.5845 190.735 25.8086 190.907 26.2569L194.974 36.94C195.113 37.3052 194.983 37.4878 194.584 37.4878H193.264C192.899 37.4878 192.645 37.2969 192.501 36.9151L191.654 34.6822H187.437L186.591 36.9151C186.447 37.2969 186.192 37.4878 185.827 37.4878H184.507ZM188.209 32.6236H190.882L189.861 29.9839C189.739 29.674 189.665 29.4499 189.637 29.3116C189.615 29.1677 189.59 28.9574 189.562 28.6807H189.529C189.501 28.9574 189.474 29.1677 189.446 29.3116C189.424 29.4499 189.352 29.674 189.23 29.9839L188.209 32.6236ZM197.033 37.4878C196.646 37.4878 196.452 37.2803 196.452 36.8653V26.2071C196.452 25.792 196.646 25.5845 197.033 25.5845H198.261C198.737 25.5845 199.097 25.7782 199.341 26.1656L203.574 32.9639H203.632C203.604 32.6319 203.591 32.2998 203.591 31.9678V26.2071C203.591 25.792 203.784 25.5845 204.172 25.5845H205.433C205.821 25.5845 206.014 25.792 206.014 26.2071V36.8653C206.014 37.2803 205.821 37.4878 205.433 37.4878H204.288C203.812 37.4878 203.452 37.2941 203.209 36.9068L198.892 29.9839H198.834C198.862 30.3159 198.876 30.648 198.876 30.98V36.8653C198.876 37.2803 198.682 37.4878 198.295 37.4878H197.033ZM209.252 37.4878C208.864 37.4878 208.671 37.2803 208.671 36.8653V26.2071C208.671 25.792 208.864 25.5845 209.252 25.5845H212.149C214.694 25.5845 216.415 26.0992 217.312 27.1284C218.214 28.1577 218.665 29.6214 218.665 31.5196C218.665 33.4177 218.214 34.8869 217.312 35.9273C216.415 36.9676 214.694 37.4878 212.149 37.4878H209.252ZM211.094 35.4292H211.991C213.706 35.4292 214.816 35.111 215.32 34.4746C215.823 33.8327 216.075 32.8477 216.075 31.5196C216.075 30.1914 215.823 29.2119 215.32 28.5811C214.816 27.9447 213.706 27.6265 211.991 27.6265H211.094V35.4292Z" fill="white"/>
<path d="M32.9655 50.8294H43.0265C44.1433 50.8294 45.0387 51.7248 45.0387 52.8416V54.8538H41.6079L39.0021 57.4596V61.4839L36.9899 63.4961V66.9269H32.9655V63.4961L30.9533 61.4839V56.2724L32.9655 54.2602V50.8294ZM41.0143 58.2846V60.8903H45.0387V56.866H42.4329L41.0143 58.2846ZM29.5347 54.8538L30.9533 53.4352V50.8294H26.9289C25.8122 50.8294 24.9167 51.7248 24.9167 52.8416V54.8538H29.5347ZM28.9411 60.8903V56.866H24.9167V60.8903H28.9411ZM30.9533 64.3211L29.5347 62.9025H24.9167V64.9147C24.9167 66.0315 25.8122 66.9269 26.9289 66.9269H30.9533V64.3211ZM40.4207 62.9025L39.0021 64.3211V66.9269H43.0265C44.1433 66.9269 45.0387 66.0315 45.0387 64.9147V62.9025H40.4207Z" fill="#F8F8F8"/>
</svg>
