<svg width="35" height="29" viewBox="0 0 35 29" fill="none" xmlns="http://www.w3.org/2000/svg">
<rect y="24" width="35" height="5" rx="2.5" fill="#07979F"/>
<rect x="20" y="14" width="14" height="5" rx="2.5" transform="rotate(90 20 14)" fill="#07979F"/>
<rect width="35" height="18" rx="5" fill="#07979F"/>
<path d="M7.86 13.12C7.252 13.12 6.684 13.008 6.156 12.784C5.628 12.56 5.164 12.252 4.764 11.86C4.364 11.46 4.048 11 3.816 10.48C3.592 9.96 3.48 9.4 3.48 8.8C3.48 8.2 3.592 7.64 3.816 7.12C4.048 6.6 4.364 6.144 4.764 5.752C5.164 5.352 5.628 5.04 6.156 4.816C6.684 4.592 7.252 4.48 7.86 4.48C8.236 4.48 8.6 4.52 8.952 4.6C9.304 4.68 9.628 4.8 9.924 4.96C10.044 5.024 10.132 5.112 10.188 5.224C10.252 5.328 10.284 5.436 10.284 5.548C10.284 5.74 10.22 5.912 10.092 6.064C9.964 6.216 9.8 6.292 9.6 6.292C9.536 6.292 9.468 6.284 9.396 6.268C9.332 6.252 9.268 6.228 9.204 6.196C9.004 6.108 8.792 6.04 8.568 5.992C8.344 5.944 8.108 5.92 7.86 5.92C7.34 5.92 6.864 6.052 6.432 6.316C6.008 6.572 5.668 6.92 5.412 7.36C5.164 7.792 5.04 8.272 5.04 8.8C5.04 9.32 5.164 9.8 5.412 10.24C5.668 10.68 6.008 11.032 6.432 11.296C6.864 11.552 7.34 11.68 7.86 11.68C8.1 11.68 8.364 11.656 8.652 11.608C8.94 11.56 9.176 11.496 9.36 11.416L9.252 11.776V9.724L9.456 9.904H8.124C7.916 9.904 7.74 9.836 7.596 9.7C7.46 9.564 7.392 9.392 7.392 9.184C7.392 8.976 7.46 8.804 7.596 8.668C7.74 8.532 7.916 8.464 8.124 8.464H10.092C10.3 8.464 10.472 8.536 10.608 8.68C10.744 8.816 10.812 8.988 10.812 9.196V11.74C10.812 11.9 10.772 12.032 10.692 12.136C10.62 12.24 10.536 12.324 10.44 12.388C10.072 12.612 9.668 12.792 9.228 12.928C8.796 13.056 8.34 13.12 7.86 13.12Z" fill="white"/>
<rect x="17" y="8" width="15" height="5" rx="2.5" fill="white"/>
<rect x="27" y="9" width="3" height="3" rx="1.5" fill="#53808C"/>
<rect x="22" y="9" width="3" height="3" rx="1.5" fill="#53808C"/>
</svg>
