<svg width="240" height="142" viewBox="0 0 240 142" fill="none" xmlns="http://www.w3.org/2000/svg">
<rect width="240" height="141.951" rx="15" fill="#8379B8"/>
<path d="M155.854 141.951L112.109 0H84.1465L126.691 141.951H155.854Z" fill="#9D91DD"/>
<path d="M128.781 141.951L85.0357 0H57.0732L99.6173 141.951H128.781Z" fill="#9185D1"/>
<path d="M100.976 141.951L57.2307 0H29.2683L71.8124 141.951H100.976Z" fill="#867BC4"/>
<path d="M162.254 116.509C162.254 115.356 162.542 114.446 163.116 113.781C163.694 113.116 164.51 112.783 165.563 112.783C166.784 112.783 167.691 113.098 168.284 113.726C168.876 114.355 169.172 115.367 169.172 116.762C169.172 117.035 169.045 117.172 168.79 117.172H164.278C164.351 117.928 164.538 118.405 164.838 118.6C165.139 118.796 165.488 118.894 165.884 118.894C166.263 118.894 166.552 118.844 166.752 118.744C166.953 118.644 167.122 118.507 167.258 118.334C167.413 118.133 167.605 118.101 167.833 118.238L168.516 118.655C168.785 118.819 168.824 119.015 168.632 119.243C168.354 119.576 168.028 119.824 167.655 119.988C167.281 120.152 166.691 120.234 165.884 120.234C164.576 120.234 163.644 119.902 163.088 119.236C162.532 118.571 162.254 117.662 162.254 116.509ZM164.285 115.805H167.258C167.258 115.312 167.135 114.911 166.889 114.601C166.643 114.287 166.251 114.13 165.713 114.13C165.285 114.13 164.945 114.28 164.695 114.581C164.444 114.877 164.307 115.285 164.285 115.805ZM170.505 117.049C170.232 117.049 170.095 116.935 170.095 116.707V115.928C170.095 115.7 170.232 115.586 170.505 115.586H173.746C174.019 115.586 174.156 115.7 174.156 115.928V116.707C174.156 116.935 174.019 117.049 173.746 117.049H170.505ZM175.858 120.098C175.584 120.098 175.448 119.961 175.448 119.687V113.33C175.448 113.057 175.584 112.92 175.858 112.92H176.938C177.211 112.92 177.348 113.057 177.348 113.33V113.726H177.375C177.508 113.435 177.731 113.205 178.045 113.036C178.36 112.867 178.654 112.783 178.927 112.783C179.474 112.783 179.898 112.911 180.199 113.166C180.504 113.421 180.714 113.706 180.828 114.02H180.855C181.251 113.505 181.609 113.17 181.928 113.016C182.252 112.861 182.664 112.783 183.166 112.783C183.84 112.783 184.407 113.006 184.868 113.453C185.333 113.9 185.565 114.715 185.565 115.9V119.687C185.565 119.961 185.428 120.098 185.155 120.098H184.061C183.788 120.098 183.651 119.961 183.651 119.687V116.392C183.651 115.399 183.583 114.772 183.446 114.513C183.314 114.253 183.077 114.123 182.735 114.123C182.416 114.123 182.124 114.31 181.86 114.683C181.596 115.057 181.463 115.827 181.463 116.994V119.687C181.463 119.961 181.327 120.098 181.053 120.098H179.959C179.686 120.098 179.549 119.961 179.549 119.687V116.392C179.549 115.399 179.481 114.772 179.344 114.513C179.212 114.253 178.975 114.123 178.633 114.123C178.314 114.123 178.023 114.31 177.758 114.683C177.494 115.053 177.362 115.823 177.362 116.994V119.687C177.362 119.961 177.225 120.098 176.952 120.098H175.858ZM187.028 116.509C187.028 115.347 187.326 114.435 187.923 113.774C188.525 113.113 189.418 112.783 190.603 112.783C191.788 112.783 192.679 113.113 193.276 113.774C193.877 114.435 194.178 115.347 194.178 116.509C194.178 117.671 193.877 118.582 193.276 119.243C192.679 119.904 191.788 120.234 190.603 120.234C189.418 120.234 188.525 119.904 187.923 119.243C187.326 118.582 187.028 117.671 187.028 116.509ZM189.051 116.509C189.051 117.375 189.183 117.99 189.448 118.354C189.717 118.714 190.102 118.894 190.603 118.894C191.104 118.894 191.487 118.714 191.751 118.354C192.02 117.99 192.155 117.375 192.155 116.509C192.155 115.643 192.02 115.03 191.751 114.67C191.487 114.305 191.104 114.123 190.603 114.123C190.102 114.123 189.717 114.305 189.448 114.67C189.183 115.03 189.051 115.643 189.051 116.509ZM196.065 120.098C195.792 120.098 195.655 119.961 195.655 119.687V113.33C195.655 113.057 195.792 112.92 196.065 112.92H197.145C197.418 112.92 197.555 113.057 197.555 113.33V113.726H197.583C197.792 113.366 198.059 113.12 198.382 112.988C198.706 112.851 199.096 112.783 199.551 112.783C200.262 112.783 200.85 113.006 201.315 113.453C201.78 113.9 202.012 114.715 202.012 115.9V119.687C202.012 119.961 201.875 120.098 201.602 120.098H200.508C200.235 120.098 200.098 119.961 200.098 119.687V116.392C200.098 115.399 200.03 114.772 199.893 114.513C199.756 114.253 199.462 114.123 199.011 114.123C198.533 114.123 198.173 114.31 197.931 114.683C197.69 115.053 197.569 115.823 197.569 116.994V119.687C197.569 119.961 197.432 120.098 197.159 120.098H196.065ZM203.475 116.509C203.475 115.356 203.762 114.446 204.336 113.781C204.915 113.116 205.731 112.783 206.784 112.783C208.005 112.783 208.912 113.098 209.504 113.726C210.097 114.355 210.393 115.367 210.393 116.762C210.393 117.035 210.265 117.172 210.01 117.172H205.499C205.571 117.928 205.758 118.405 206.059 118.6C206.36 118.796 206.708 118.894 207.105 118.894C207.483 118.894 207.773 118.844 207.973 118.744C208.174 118.644 208.342 118.507 208.479 118.334C208.634 118.133 208.825 118.101 209.053 118.238L209.737 118.655C210.006 118.819 210.044 119.015 209.853 119.243C209.575 119.576 209.249 119.824 208.875 119.988C208.502 120.152 207.912 120.234 207.105 120.234C205.797 120.234 204.865 119.902 204.309 119.236C203.753 118.571 203.475 117.662 203.475 116.509ZM205.505 115.805H208.479C208.479 115.312 208.356 114.911 208.11 114.601C207.864 114.287 207.472 114.13 206.934 114.13C206.506 114.13 206.166 114.28 205.916 114.581C205.665 114.877 205.528 115.285 205.505 115.805ZM211.439 113.453C211.316 113.098 211.391 112.92 211.665 112.92H212.888C213.098 112.92 213.235 113.036 213.298 113.268L214.331 117.09C214.381 117.267 214.424 117.498 214.46 117.78C214.501 118.058 214.522 118.236 214.522 118.313H214.563C214.618 118.072 214.656 117.88 214.679 117.739C214.707 117.593 214.777 117.313 214.891 116.898L215.869 113.268C215.932 113.036 216.069 112.92 216.279 112.92H217.502C217.771 112.92 217.847 113.098 217.728 113.453L215.424 120.385C215.155 121.196 214.825 121.829 214.433 122.285C214.041 122.741 213.497 122.969 212.799 122.969C212.417 122.969 212.075 122.937 211.774 122.873C211.601 122.836 211.535 122.718 211.576 122.517L211.726 121.766C211.767 121.57 211.883 121.501 212.075 121.56C212.216 121.606 212.348 121.629 212.471 121.629C212.84 121.629 213.121 121.453 213.312 121.102C213.508 120.752 213.638 120.451 213.702 120.2L213.722 120.098L211.439 113.453Z" fill="white"/>
<path d="M162.236 31.6342C161.793 31.6342 161.572 31.4266 161.572 31.0116V20.3534C161.572 19.9384 161.793 19.7308 162.236 19.7308H165.058C167.183 19.7308 168.617 19.9937 169.358 20.5194C170.105 21.0396 170.479 21.842 170.479 22.9266C170.479 23.6848 170.199 24.2714 169.64 24.6864C169.087 25.1014 168.55 25.3422 168.03 25.4086V25.4335C168.534 25.4667 169.126 25.7212 169.806 26.1971C170.487 26.6731 170.827 27.3454 170.827 28.2142C170.827 29.2325 170.412 30.057 169.582 30.6879C168.752 31.3187 167.383 31.6342 165.473 31.6342H162.236ZM163.996 29.6088H165.208C166.381 29.6088 167.178 29.5064 167.598 29.3016C168.024 29.0969 168.238 28.6818 168.238 28.0565C168.238 27.4699 167.991 27.066 167.499 26.8446C167.012 26.6177 166.248 26.5043 165.208 26.5043H163.996V29.6088ZM163.996 24.5453H165.083C165.797 24.5453 166.464 24.4208 167.084 24.1718C167.709 23.9227 168.022 23.5354 168.022 23.0096C168.022 22.6001 167.847 22.2902 167.499 22.08C167.156 21.8641 166.351 21.7562 165.083 21.7562H163.996V24.5453ZM173.608 31.6342C173.221 31.6342 173.027 31.4266 173.027 31.0116V20.3534C173.027 19.9384 173.221 19.7308 173.608 19.7308H177.451C179.161 19.7308 180.409 19.9965 181.195 20.5277C181.981 21.0534 182.374 21.9112 182.374 23.101C182.374 23.9864 182.056 24.6919 181.419 25.2177C180.783 25.7434 179.975 26.092 178.995 26.2635V26.2802C179.527 26.4794 179.928 26.7561 180.199 27.1102C180.47 27.4644 180.691 27.7743 180.863 28.0399L182.689 30.9203C182.994 31.3962 182.888 31.6342 182.374 31.6342H180.929C180.625 31.6342 180.376 31.4709 180.182 31.1444L178.506 28.347C178.323 28.0482 177.988 27.7217 177.501 27.3676C177.02 27.0079 176.541 26.828 176.065 26.828H175.451V31.0116C175.451 31.4266 175.257 31.6342 174.87 31.6342H173.608ZM175.451 24.7694H176.937C178.044 24.7694 178.829 24.6449 179.294 24.3959C179.765 24.1413 180 23.7401 180 23.1923C180 22.5946 179.773 22.2072 179.319 22.0302C178.871 21.8475 178.21 21.7562 177.335 21.7562H175.451V24.7694ZM184.507 31.6342C184.109 31.6342 183.979 31.4515 184.117 31.0863L188.184 20.4032C188.356 19.955 188.616 19.7308 188.965 19.7308H190.127C190.475 19.7308 190.735 19.955 190.907 20.4032L194.974 31.0863C195.113 31.4515 194.983 31.6342 194.584 31.6342H193.264C192.899 31.6342 192.645 31.4432 192.501 31.0614L191.654 28.8285H187.437L186.591 31.0614C186.447 31.4432 186.192 31.6342 185.827 31.6342H184.507ZM188.209 26.7699H190.882L189.861 24.1302C189.739 23.8204 189.665 23.5962 189.637 23.4579C189.615 23.314 189.59 23.1037 189.562 22.827H189.529C189.501 23.1037 189.474 23.314 189.446 23.4579C189.424 23.5962 189.352 23.8204 189.23 24.1302L188.209 26.7699ZM197.033 31.6342C196.646 31.6342 196.452 31.4266 196.452 31.0116V20.3534C196.452 19.9384 196.646 19.7308 197.033 19.7308H198.261C198.737 19.7308 199.097 19.9245 199.341 20.3119L203.574 27.1102H203.632C203.604 26.7782 203.591 26.4462 203.591 26.1141V20.3534C203.591 19.9384 203.784 19.7308 204.172 19.7308H205.433C205.821 19.7308 206.014 19.9384 206.014 20.3534V31.0116C206.014 31.4266 205.821 31.6342 205.433 31.6342H204.288C203.812 31.6342 203.452 31.4405 203.209 31.0531L198.892 24.1302H198.834C198.862 24.4623 198.876 24.7943 198.876 25.1263V31.0116C198.876 31.4266 198.682 31.6342 198.295 31.6342H197.033ZM209.252 31.6342C208.864 31.6342 208.671 31.4266 208.671 31.0116V20.3534C208.671 19.9384 208.864 19.7308 209.252 19.7308H212.149C214.694 19.7308 216.415 20.2455 217.312 21.2748C218.214 22.3041 218.665 23.7678 218.665 25.6659C218.665 27.564 218.214 29.0332 217.312 30.0736C216.415 31.114 214.694 31.6342 212.149 31.6342H209.252ZM211.094 29.5756H211.991C213.706 29.5756 214.816 29.2574 215.32 28.621C215.823 27.979 216.075 26.994 216.075 25.6659C216.075 24.3378 215.823 23.3583 215.32 22.7274C214.816 22.091 213.706 21.7728 211.991 21.7728H211.094V29.5756Z" fill="white"/>
<circle cx="44.2684" cy="64.7561" r="18.6585" fill="#D0A7C5"/>
<circle cx="68.4146" cy="64.7561" r="18.6585" fill="#FED8A0"/>
</svg>
