<svg id="Layer_1" data-name="Layer 1" xmlns="http://www.w3.org/2000/svg" viewBox="0 0 50 50"><defs><style>.cls-1{fill:none;stroke:#07979F;stroke-linecap:round;stroke-miterlimit:10;stroke-width:2px;}.cls-2{fill:#07979F;}</style></defs><title>log4</title><path class="cls-1" d="M31.9,7.94a18.31,18.31,0,0,1,6.25,4.79A18.54,18.54,0,0,1,42.37,26.2c0,.53-1.1,9.25-8.88,13.71A18.51,18.51,0,0,1,11.18,36.7,18.12,18.12,0,0,1,6.94,19.65,18.36,18.36,0,0,1,24,6.28"/><polygon class="cls-2" points="29.99 6.12 36.94 6.35 32.1 12.67 29.99 6.12"/><circle class="cls-2" cx="7.48" cy="24.68" r="2"/><circle class="cls-2" cx="41.19" cy="24.68" r="2"/><circle class="cls-2" cx="23.35" cy="41.16" r="2"/><line class="cls-1" x1="24.47" y1="14.84" x2="24.56" y2="25.11"/><line class="cls-1" x1="24.43" y1="25.34" x2="18.91" y2="30.57"/></svg>