<svg width="129" height="129" viewBox="0 0 129 129" fill="none" xmlns="http://www.w3.org/2000/svg">
<path d="M64.5 8.0625C79.4682 8.0625 93.8232 14.0086 104.407 24.5927C114.991 35.1767 120.938 49.5318 120.938 64.5C120.938 79.4682 114.991 93.8232 104.407 104.407C93.8232 114.991 79.4682 120.938 64.5 120.938C49.5318 120.938 35.1767 114.991 24.5927 104.407C14.0086 93.8232 8.0625 79.4682 8.0625 64.5C8.0625 49.5318 14.0086 35.1767 24.5927 24.5927C35.1767 14.0086 49.5318 8.0625 64.5 8.0625ZM64.5 112.875C77.3298 112.875 89.6342 107.778 98.7063 98.7063C107.778 89.6342 112.875 77.3298 112.875 64.5C112.875 51.6702 107.778 39.3658 98.7063 30.2937C89.6342 21.2216 77.3298 16.125 64.5 16.125C51.6702 16.125 39.3658 21.2216 30.2937 30.2937C21.2216 39.3658 16.125 51.6702 16.125 64.5C16.125 77.3298 21.2216 89.6342 30.2937 98.7063C39.3658 107.778 51.6702 112.875 64.5 112.875ZM70.5469 90.7031C70.5469 92.3069 69.9098 93.8449 68.7758 94.9789C67.6418 96.1129 66.1037 96.75 64.5 96.75C62.8963 96.75 61.3582 96.1129 60.2242 94.9789C59.0902 93.8449 58.4531 92.3069 58.4531 90.7031C58.4531 89.0994 59.0902 87.5613 60.2242 86.4273C61.3582 85.2933 62.8963 84.6562 64.5 84.6562C66.1037 84.6562 67.6418 85.2933 68.7758 86.4273C69.9098 87.5613 70.5469 89.0994 70.5469 90.7031ZM64.5 32.25C65.5692 32.25 66.5945 32.6747 67.3505 33.4307C68.1065 34.1867 68.5312 35.2121 68.5312 36.2812V72.5625C68.5312 73.6317 68.1065 74.657 67.3505 75.413C66.5945 76.169 65.5692 76.5938 64.5 76.5938C63.4308 76.5938 62.4055 76.169 61.6495 75.413C60.8935 74.657 60.4688 73.6317 60.4688 72.5625V36.2812C60.4688 35.2121 60.8935 34.1867 61.6495 33.4307C62.4055 32.6747 63.4308 32.25 64.5 32.25Z" fill="#F9C719"/>
</svg>
